<svg width="38" height="420" viewBox="0 0 38 420" fill="none" xmlns="http://www.w3.org/2000/svg">
<path d="M17.2323 418.768C18.2086 419.744 19.7915 419.744 20.7678 418.768L36.6777 402.858C37.654 401.882 37.654 400.299 36.6777 399.322C35.7014 398.346 34.1185 398.346 33.1422 399.322L19 413.464L4.8579 399.322C3.88159 398.346 2.29867 398.346 1.32236 399.322C0.346053 400.299 0.346053 401.882 1.32236 402.858L17.2323 418.768ZM16.5 17L16.5 417L21.5 417L21.5 17L16.5 17Z" fill="#E5E5E5"/>
<path d="M17.2322 20.9777C18.2085 21.954 19.7914 21.954 20.7678 20.9777L36.6778 5.06796C37.6541 4.09166 37.6541 2.50875 36.6778 1.53243C35.7015 0.556109 34.1186 0.556095 33.1423 1.5324L19 15.6744L4.85803 1.53215C3.88173 0.555832 2.29881 0.555818 1.3225 1.53212C0.346176 2.50842 0.346162 4.09134 1.32246 5.06766L17.2322 20.9777ZM16.5 17L16.5 19.2099L21.5 19.21L21.5 17L16.5 17Z" fill="#E5E5E5"/>
<path d="M17.2322 55.1021C18.2085 56.0785 19.7915 56.0785 20.7678 55.1021L36.6777 39.1923C37.654 38.2159 37.654 36.633 36.6777 35.6567C35.7014 34.6804 34.1185 34.6804 33.1422 35.6567L19 49.7988L4.8579 35.6567C3.88159 34.6804 2.29868 34.6804 1.32237 35.6567C0.346057 36.633 0.346054 38.2159 1.32236 39.1922L17.2322 55.1021ZM16.5 40.0747L16.5 53.3344L21.5 53.3344L21.5 40.0747L16.5 40.0747Z" fill="#E5E5E5"/>
<path d="M17.2322 43.5648C18.2085 44.5411 19.7915 44.5411 20.7678 43.5648L36.6777 27.6549C37.654 26.6786 37.654 25.0957 36.6777 24.1194C35.7014 23.1431 34.1185 23.1431 33.1422 24.1194L19 38.2615L4.85791 24.1194C3.8816 23.143 2.29869 23.143 1.32238 24.1194C0.346062 25.0957 0.346059 26.6786 1.32237 27.6549L17.2322 43.5648ZM16.5 30.7473L16.5 41.797L21.5 41.797L21.5 30.7473L16.5 30.7473Z" fill="#E5E5E5"/>
</svg>
