<svg width="277" height="76" viewBox="0 0 277 76" fill="none" xmlns="http://www.w3.org/2000/svg">
<path fill-rule="evenodd" clip-rule="evenodd" d="M168.348 22.4255L21.073 35.6583L21 34.8564L168.275 21.6235L168.348 22.4255ZM265.085 23.0027L117.809 36.2355L117.736 35.4336L265.012 22.2007L265.085 23.0027ZM265.085 12.5347L151.039 23.0027L150.965 22.2009L265.01 11.7328L265.085 12.5347ZM32.0993 0L200.053 8.68307L201.996 6.5953L202.826 8.82645L212.532 9.32822L230.114 23.224L252.051 9.43579L238.572 34.8404L266 44.7928L265.773 46.3528L231.322 48.5049L222.231 65.6394L216.209 49.4489L161.11 52.8908L152.445 62.2005L151.1 61.3475L154.428 53.3082L129.457 54.8681L134.212 13.5298L101.42 38.6516L87.7796 19.121L63.2616 49.9761L48.5674 12.0185L50.0803 11.4404L63.7529 46.7589L87.8636 16.4163L101.78 36.3421L136.258 9.929L131.287 53.1401L155.114 51.6517L172.063 10.7077L191.577 17.7883L198.621 10.2217L34.1291 1.71758L50.1162 75.5761L48.555 76L25.8615 8.36052L27.3993 7.85124L45.4342 61.6057L32.0993 0ZM200.727 10.3306L193.228 18.3872L206.437 23.1803L201.676 10.3796L200.727 10.3306ZM203.438 10.4707L208.435 23.9052L237.035 34.2829L247.785 14.023L230.007 25.1971L211.929 10.9097L203.438 10.4707ZM236.272 35.7206L209.172 25.8872L217.311 47.7664L230.312 46.9543L236.272 35.7206ZM232.207 46.8359L261.809 44.9867L237.809 36.2781L232.207 46.8359ZM229.427 48.6232L217.897 49.3434L222.492 61.6944L229.427 48.6232ZM215.622 47.8719L207.175 25.1623L192.035 19.6688L162.705 51.1775L215.622 47.8719ZM160.361 51.3239L190.384 19.07L172.97 12.7512L156.913 51.5393L160.361 51.3239ZM156.227 53.1958L154.312 57.8225L158.766 53.0372L156.227 53.1958Z" fill="#E5E5E5" fill-opacity="0.74"/>
<path d="M13.8698 38V32.24H19.1258C21.2618 32.24 22.6538 31.664 23.6378 30.728C24.5498 29.84 25.1258 28.64 25.1258 27.272C25.1258 26.072 24.6698 24.968 23.8538 24.056C22.8218 22.952 21.3338 22.328 19.1258 22.328H10.4378V38H13.8698ZM19.2458 25.232C19.8698 25.232 20.5658 25.328 21.0938 25.88C21.4538 26.264 21.6698 26.744 21.6698 27.296C21.6698 27.824 21.4298 28.352 21.0458 28.736C20.5178 29.24 19.8458 29.336 19.2458 29.336H13.8698V25.232H19.2458ZM30.9131 30.128C30.9131 34.784 34.8011 38.48 39.7691 38.48C44.7371 38.48 48.7211 34.784 48.7211 30.128C48.7211 25.568 44.7371 21.848 39.7691 21.848C34.8011 21.848 30.9131 25.568 30.9131 30.128ZM34.5131 30.128C34.5131 27.224 36.8171 24.824 39.7691 24.824C42.7691 24.824 45.1212 27.224 45.1212 30.128C45.1212 33.08 42.7691 35.528 39.7691 35.528C36.8171 35.528 34.5131 33.08 34.5131 30.128ZM67.2242 22.328V32.048H67.2002L59.2082 22.328H56.2562V38H59.7122V28.304H59.7362L67.7042 38H70.6802V22.328H67.2242ZM77.7276 25.304H83.4156V38H86.8476V25.304H92.5116V22.328H77.7276V25.304ZM110.127 22.328V32.36C110.127 34.424 108.543 35.528 106.407 35.528C104.391 35.528 102.735 34.424 102.735 32.36V22.328H99.2788V32.36C99.2788 36.272 102.375 38.48 106.407 38.48C110.559 38.48 113.583 36.272 113.583 32.36V22.328H110.127ZM135.263 23.96C133.919 23.048 131.159 21.848 127.895 21.848C124.943 21.848 121.415 23.024 121.415 26.816C121.415 30.8 125.447 31.184 128.879 31.4C131.231 31.592 132.839 31.928 132.839 33.44C132.839 34.904 131.255 35.672 129.263 35.672C126.095 35.672 123.863 34.088 122.543 33.032L120.599 35.384C122.423 36.872 125.159 38.48 129.215 38.48C133.055 38.48 136.271 36.968 136.271 33.104C136.271 28.784 131.807 28.448 128.951 28.256C126.911 28.088 124.847 27.992 124.847 26.6C124.847 25.256 126.239 24.68 127.799 24.68C130.391 24.68 132.359 25.664 133.295 26.36L135.263 23.96ZM164.391 25.304H170.079V38H173.511V25.304H179.175V22.328H164.391V25.304ZM185.116 38H188.74L190.156 34.688H197.404L198.844 38H202.612L195.34 22.328H192.388L185.116 38ZM193.708 26.432H193.852L196.228 31.976H191.332L193.708 26.432ZM215.426 38V31.04H222.818V38H226.274V22.328H222.818V28.136H215.426V22.328H211.97V38H215.426ZM241.244 38V22.328H237.812V38H241.244ZM256.212 38V32.24H260.868L264.036 38H267.972L264.3 31.688C266.22 30.848 267.468 29.288 267.468 27.272C267.468 26.024 266.988 24.896 266.172 24.032C265.164 22.976 263.7 22.328 261.468 22.328H252.78V38H256.212ZM261.588 25.232C262.212 25.232 262.908 25.304 263.46 25.904C263.82 26.264 264.012 26.744 264.012 27.272C264.012 28.472 263.028 29.336 261.828 29.336H256.212V25.232H261.588Z" fill="white"/>
<path d="M220.5 12L221.735 15.8004H225.731L222.498 18.1492L223.733 21.9496L220.5 19.6008L217.267 21.9496L218.502 18.1492L215.269 15.8004H219.265L220.5 12Z" fill="white"/>
</svg>
