<svg width="309" height="132" viewBox="0 0 309 132" fill="none" xmlns="http://www.w3.org/2000/svg">
<path d="M69.1619 87.4688C69.7244 87.4688 69.9588 87.75 69.865 88.3125C69.7713 88.875 69.8181 89.3438 70.0056 89.7188C69.9119 90.0938 69.7713 90.375 69.5838 90.5625C69.49 90.75 69.3963 90.9844 69.3025 91.2656C69.2088 91.9219 69.115 92.5781 69.0213 93.2344C69.0213 93.7969 68.9275 94.3125 68.74 94.7812C67.8025 96 67.3806 96.7969 67.4744 97.1719C67.5681 97.5469 67.5681 97.9688 67.4744 98.4375C67.0056 99.6562 66.7713 100.594 66.7713 101.25C66.3963 101.812 66.1619 102.516 66.0681 103.359C65.9744 104.203 65.9744 105 66.0681 105.75C65.8806 106.312 65.5056 106.734 64.9431 107.016C64.3806 107.297 63.9119 107.672 63.5369 108.141C63.5369 108.609 63.5369 109.125 63.5369 109.688C63.6306 110.156 63.49 110.531 63.115 110.812C62.2713 111.281 61.8963 111.703 61.99 112.078C62.0838 112.453 62.1775 112.781 62.2713 113.062C61.7088 114.188 61.3806 114.938 61.2869 115.312C61.2869 115.594 61.3338 115.969 61.4275 116.438C61.3338 117.469 61.1463 118.125 60.865 118.406C60.3963 118.406 59.9744 118.453 59.5994 118.547C59.3181 118.641 58.9431 118.781 58.4744 118.969C57.8181 118.969 57.3025 118.828 56.9275 118.547C55.99 118.734 55.4744 118.734 55.3806 118.547C55.2869 118.453 55.1463 118.312 54.9588 118.125C54.49 118.031 54.2088 118.172 54.115 118.547C54.115 118.922 53.8806 119.062 53.4119 118.969C52.9431 118.125 52.4744 117.656 52.0056 117.562C51.6306 117.562 51.2556 117.609 50.8806 117.703C50.5056 117.516 50.0369 117.422 49.4744 117.422C48.9119 117.422 48.3963 117.469 47.9275 117.562C47.6463 117.469 47.1306 117.328 46.3806 117.141C45.7244 117.047 45.3025 116.953 45.115 116.859C44.8338 117.141 44.5525 117.562 44.2713 118.125C44.0838 118.781 43.7088 119.156 43.1463 119.25C42.7713 118.594 42.5838 118.078 42.5838 117.703C42.6775 117.328 42.7713 116.906 42.865 116.438C42.0213 117.469 40.9431 117.938 39.6306 117.844C38.3181 117.75 37.3806 117.75 36.8181 117.844C36.3494 117.938 35.74 117.984 34.99 117.984C34.24 117.984 33.7713 117.797 33.5838 117.422C32.6463 117.234 32.1306 117.281 32.0369 117.562C32.0369 117.844 31.8494 118.031 31.4744 118.125C30.5369 118.031 29.9275 117.938 29.6463 117.844C28.8025 117.562 28.1931 117.609 27.8181 117.984C27.6306 118.266 27.49 118.5 27.3963 118.688C27.3025 118.969 27.115 119.203 26.8338 119.391C25.8025 118.734 25.1931 118.5 25.0056 118.688C24.9119 118.875 24.6306 118.922 24.1619 118.828C23.9744 117.984 23.8338 117.562 23.74 117.562C23.6463 117.562 23.5525 117.516 23.4588 117.422C22.99 117.516 22.615 117.656 22.3338 117.844C22.1463 118.125 21.7713 118.219 21.2088 118.125C20.0838 117.75 19.4744 117.516 19.3806 117.422C19.3806 117.328 19.2869 117.234 19.0994 117.141C18.7244 117.234 18.3494 117.234 17.9744 117.141C17.5994 117.141 17.2244 117.234 16.8494 117.422C15.7244 117.609 14.6931 117.703 13.7556 117.703C13.2869 117.891 12.5369 118.078 11.5056 118.266C10.5681 118.453 9.72438 118.359 8.97438 117.984C8.69313 116.953 8.31813 116.531 7.84938 116.719C7.47438 116.906 7.09938 117.047 6.72438 117.141C6.44313 117.328 6.16188 117.469 5.88063 117.562C5.59938 117.656 5.22438 117.797 4.75563 117.984C4.38063 117.984 4.09938 117.938 3.91188 117.844C3.72438 117.844 3.49001 117.797 3.20876 117.703C2.92751 117.797 2.59938 117.891 2.22438 117.984C1.94313 118.172 1.61501 118.172 1.24001 117.984C1.42751 117.516 1.70876 117.141 2.08376 116.859C2.45876 116.578 2.83376 116.297 3.20876 116.016C3.49001 115.547 3.91188 115.172 4.47438 114.891C5.31813 114.047 5.78688 113.625 5.88063 113.625C6.06813 113.625 6.25563 113.578 6.44313 113.484C6.91188 113.203 7.19313 112.781 7.28688 112.219C7.38063 111.656 7.52126 111.094 7.70876 110.531C8.27126 109.781 8.41188 109.312 8.13063 109.125C7.94313 108.938 7.89626 108.609 7.99001 108.141C8.36501 107.578 9.16188 107.297 10.3806 107.297C10.5681 106.828 10.5681 106.406 10.3806 106.031C10.1931 105.656 10.1931 105.141 10.3806 104.484C10.5681 104.297 10.8025 104.203 11.0838 104.203C11.365 104.109 11.5994 103.969 11.7869 103.781C11.8806 103.312 11.8806 102.938 11.7869 102.656C11.6931 102.281 11.5525 101.859 11.365 101.391C11.5525 101.016 11.5994 100.641 11.5056 100.266C11.5056 99.8906 11.4588 99.5156 11.365 99.1406C11.4588 98.8594 11.5525 98.625 11.6463 98.4375C11.74 98.25 11.7869 97.9688 11.7869 97.5938C11.4119 96.6562 11.365 95.7188 11.6463 94.7812C11.5525 94.5 11.3181 94.3125 10.9431 94.2188C10.6619 94.125 10.4744 93.9375 10.3806 93.6562C10.6619 92.5312 10.6619 91.9219 10.3806 91.8281C10.1931 91.6406 10.0056 91.4062 9.81813 91.125C9.81813 90.6562 9.95876 90.375 10.24 90.2812C10.5213 90.0938 10.7556 89.8594 10.9431 89.5781C10.9431 88.6406 10.8025 87.8906 10.5213 87.3281C11.0838 86.2031 11.4119 85.5469 11.5056 85.3594C11.6931 85.0781 11.6931 84.7031 11.5056 84.2344C11.5994 83.6719 11.6463 83.2031 11.6463 82.8281C11.74 82.4531 11.7869 82.0312 11.7869 81.5625C11.5056 80.5312 11.5056 79.9688 11.7869 79.875C12.0681 79.7812 12.1619 79.5 12.0681 79.0312C11.8806 78.8438 11.4588 78.4688 10.8025 77.9062C10.8025 77.25 10.7088 76.7812 10.5213 76.5C10.3338 76.125 10.24 75.6094 10.24 74.9531C10.615 74.1094 10.7556 73.5469 10.6619 73.2656C10.5681 72.8906 10.615 72.5625 10.8025 72.2812C10.7088 72 10.5681 71.7656 10.3806 71.5781C10.1931 71.3906 10.0525 71.1562 9.95876 70.875C10.0525 70.125 10.3338 69.4688 10.8025 68.9062C10.615 68.25 10.6619 67.7344 10.9431 67.3594C11.2244 66.8906 11.4119 66.375 11.5056 65.8125C11.5056 65.3438 11.4588 64.9688 11.365 64.6875C11.2713 64.3125 11.3181 63.8906 11.5056 63.4219C11.4119 63.1406 11.2713 62.9062 11.0838 62.7188C10.8963 62.4375 10.7556 62.1562 10.6619 61.875C10.6619 61.125 10.615 60.7031 10.5213 60.6094C10.4275 60.5156 10.3338 60.375 10.24 60.1875C10.24 59.7188 10.3338 59.4375 10.5213 59.3438C10.7088 59.1562 10.8963 58.9688 11.0838 58.7812C10.615 57.6562 10.4275 57.0469 10.5213 56.9531C10.4275 55.9219 10.5681 55.3125 10.9431 55.125C11.4119 54.9375 11.74 54.6562 11.9275 54.2812C11.6463 54.0938 11.3181 53.9062 10.9431 53.7188C10.6619 53.5312 10.4275 53.3438 10.24 53.1562C10.24 52.6875 10.2869 52.3125 10.3806 52.0312C10.5681 51.75 10.7556 51.4688 10.9431 51.1875C11.0369 49.0312 10.7088 47.6719 9.95876 47.1094C9.86501 46.7344 9.86501 46.4531 9.95876 46.2656C10.0525 45.9844 10.0994 45.6094 10.0994 45.1406C9.34938 44.1094 9.39626 42.9375 10.24 41.625C9.67751 40.6875 9.44313 40.1719 9.53688 40.0781C9.72438 39.8906 9.91188 39.7031 10.0994 39.5156C10.0056 39.0469 9.95876 38.6719 9.95876 38.3906C10.0525 38.1094 10.1931 37.7344 10.3806 37.2656C10.2869 36.3281 10.1931 35.625 10.0994 35.1562C10.0056 34.6875 9.95876 34.2188 9.95876 33.75C10.3338 33.375 10.6619 32.8125 10.9431 32.0625C10.6619 31.0312 10.5681 30.2344 10.6619 29.6719C10.8494 29.0156 10.8494 28.3594 10.6619 27.7031C10.0994 27.3281 9.67751 26.7656 9.39626 26.0156C9.11501 25.0781 8.92751 24.5625 8.83376 24.4688C8.27126 23.3438 7.70876 22.7344 7.14626 22.6406C6.58376 22.4531 6.20876 22.125 6.02126 21.6562C6.11501 20.7188 5.92751 20.25 5.45876 20.25C4.99001 20.1563 4.66188 19.9219 4.47438 19.5469C4.38063 18.4219 4.14626 17.8594 3.77126 17.8594C3.39626 17.7656 3.02126 17.6719 2.64626 17.5781C2.55251 17.2969 2.27126 16.9219 1.80251 16.4531C1.33376 15.9844 1.00563 15.6563 0.81813 15.4688C2.31813 15 3.06813 14.8594 3.06813 15.0469C3.06813 15.2344 3.49001 15.1875 4.33376 14.9062C4.42751 15 4.75563 15.0469 5.31813 15.0469C5.97438 14.9531 6.34938 14.9531 6.44313 15.0469C7.09938 15.3281 7.47438 15.4219 7.56813 15.3281C7.66188 15.2344 7.80251 15.1875 7.99001 15.1875C9.20876 15.2812 9.77126 15.1406 9.67751 14.7656C9.86501 14.5781 10.0994 14.4844 10.3806 14.4844C10.7556 14.4844 11.1306 14.4375 11.5056 14.3438C12.2556 14.0625 12.9588 13.9219 13.615 13.9219C13.8025 14.1094 13.8494 14.3906 13.7556 14.7656C13.7556 15.1406 13.7556 15.4688 13.7556 15.75C14.3181 15.5625 14.6931 15.2812 14.8806 14.9062C15.1619 14.5313 15.5838 14.2969 16.1463 14.2031C16.615 14.2969 17.1306 14.25 17.6931 14.0625C18.2556 13.875 18.7244 14.0156 19.0994 14.4844C20.4119 14.2969 21.6306 14.2969 22.7556 14.4844C23.2244 14.2969 23.6463 14.1094 24.0213 13.9219C24.49 13.7344 24.9588 13.7812 25.4275 14.0625C25.8025 14.625 26.0838 14.9062 26.2713 14.9062C26.4588 14.9062 26.5994 15 26.6931 15.1875C26.5994 16.0312 26.74 16.7344 27.115 17.2969C27.115 18.0469 26.9744 18.6094 26.6931 18.9844C26.4119 19.3594 26.3181 19.9219 26.4119 20.6719C26.8806 21.6094 27.2088 22.2656 27.3963 22.6406C27.2088 23.2031 27.0213 23.7656 26.8338 24.3281C26.74 24.7969 26.5525 25.2188 26.2713 25.5938C26.6463 27.0937 26.6463 28.125 26.2713 28.6875C26.8338 29.5312 27.0213 30.5625 26.8338 31.7812C26.74 32.9062 26.8806 33.9844 27.2556 35.0156C27.1619 35.9531 27.1619 36.5156 27.2556 36.7031C27.3494 36.7969 27.4431 36.9375 27.5369 37.125C27.5369 38.3437 27.5838 39.0938 27.6775 39.375C27.865 39.5625 27.9119 39.8906 27.8181 40.3594C27.7244 41.6719 27.6775 42.5625 27.6775 43.0312C27.3025 43.7813 27.2088 44.5781 27.3963 45.4219C27.5838 46.2656 27.6306 47.2031 27.5369 48.2344C27.3494 48.9844 27.3025 49.4531 27.3963 49.6406C27.49 49.8281 27.5838 50.0156 27.6775 50.2031C27.5838 50.4844 27.5369 50.8125 27.5369 51.1875C27.6306 51.4688 27.5838 51.7031 27.3963 51.8906C27.3025 52.6406 27.3025 53.3906 27.3963 54.1406C27.5838 54.7969 27.6775 55.4062 27.6775 55.9688C27.3025 56.9062 27.1619 57.4219 27.2556 57.5156C27.4431 57.5156 27.5838 57.6094 27.6775 57.7969C27.865 58.5469 27.865 59.3438 27.6775 60.1875C27.7713 60.6562 27.865 61.0781 27.9588 61.4531C28.0525 61.7344 28.0994 62.1562 28.0994 62.7188C28.0994 63.1875 28.0056 63.6562 27.8181 64.125C27.7244 64.5938 27.6775 65.0625 27.6775 65.5312C27.6775 66 27.7244 66.5156 27.8181 67.0781C27.9119 67.5469 27.9119 68.0156 27.8181 68.4844C27.8181 68.9531 27.7244 69.375 27.5369 69.75C27.4431 70.0312 27.3025 70.4062 27.115 70.875C27.3025 71.25 27.3963 71.6719 27.3963 72.1406C27.3963 72.6094 27.49 72.9844 27.6775 73.2656C27.7713 74.0156 27.865 74.4844 27.9588 74.6719C28.1463 74.8594 28.1931 75.0938 28.0994 75.375C28.0994 75.6562 28.0056 75.9375 27.8181 76.2188C27.7244 76.4062 27.6775 76.6406 27.6775 76.9219C28.0525 78.0469 28.1931 78.75 28.0994 79.0312C28.0056 79.3125 27.9119 79.5938 27.8181 79.875C27.9119 80.3438 27.9588 80.8594 27.9588 81.4219C27.9588 81.8906 27.865 82.3594 27.6775 82.8281C27.7713 83.2969 27.8181 83.7656 27.8181 84.2344C27.8181 84.7031 27.7244 85.125 27.5369 85.5C27.8181 86.25 27.9588 87.0469 27.9588 87.8906C27.865 88.1719 27.7244 88.4531 27.5369 88.7344C27.3494 89.0156 27.2556 89.3906 27.2556 89.8594C27.3494 91.0781 27.3494 91.8281 27.2556 92.1094C27.2556 92.3906 27.2556 92.7656 27.2556 93.2344C27.2556 93.7031 27.3494 94.3125 27.5369 95.0625C27.5369 95.4375 27.49 95.8125 27.3963 96.1875C27.3963 96.4688 27.4431 96.75 27.5369 97.0312C27.5369 97.4062 27.5838 97.7812 27.6775 98.1562C27.7713 98.5312 27.9119 98.9531 28.0994 99.4219C28.1931 99.7969 28.1931 100.172 28.0994 100.547C28.0994 100.828 28.0994 101.156 28.0994 101.531C28.2869 102 28.4275 102.562 28.5213 103.219C28.615 103.781 28.8963 104.203 29.365 104.484C29.9275 104.391 30.3963 104.203 30.7713 103.922C31.24 103.547 31.8494 103.453 32.5994 103.641C33.0681 103.453 33.6306 103.172 34.2869 102.797C35.0369 102.422 35.74 102.281 36.3963 102.375C36.9588 103.031 37.7088 103.266 38.6463 103.078C39.6775 102.797 40.4744 102.75 41.0369 102.938C41.5056 102.844 41.8338 102.656 42.0213 102.375C42.2088 102 42.5838 101.906 43.1463 102.094C43.3338 102.375 43.5213 102.703 43.7088 103.078C43.99 103.359 44.0369 103.688 43.8494 104.062C43.9431 104.062 44.2244 104.062 44.6931 104.062C45.1619 103.969 45.6306 103.922 46.0994 103.922C46.5681 103.922 46.99 103.969 47.365 104.062C47.8338 104.062 48.0681 104.156 48.0681 104.344C48.3494 104.156 48.5838 104.016 48.7713 103.922C48.9588 103.734 49.24 103.594 49.615 103.5C49.8963 103.594 50.2713 103.5 50.74 103.219C51.2088 102.844 51.6775 102.516 52.1463 102.234C52.615 101.859 53.0838 101.578 53.5525 101.391C54.115 101.109 54.5369 101.062 54.8181 101.25C55.0994 101.062 55.3338 100.781 55.5213 100.406C55.7088 100.031 55.99 99.9375 56.365 100.125C56.8338 100.406 57.1619 100.453 57.3494 100.266C57.6306 99.9844 58.0056 99.8438 58.4744 99.8438C58.9431 99.6562 59.2713 99.4219 59.4588 99.1406C59.74 98.7656 60.0681 98.4375 60.4431 98.1562C60.5369 97.2188 60.865 96.5625 61.4275 96.1875C62.5525 96 63.1619 95.7188 63.2556 95.3438C63.4431 94.9688 63.4431 94.6406 63.2556 94.3594C63.7244 93.8906 63.9588 93.2812 63.9588 92.5312C64.24 92.0625 64.8025 92.0156 65.6463 92.3906C66.0213 92.2031 66.2556 91.9688 66.3494 91.6875C66.5369 91.3125 66.7244 90.8906 66.9119 90.4219C67.3806 89.9531 67.7088 89.3906 67.8963 88.7344C68.0838 88.0781 68.5056 87.6562 69.1619 87.4688ZM131.808 73.9688C131.808 74.7188 131.667 75.2812 131.386 75.6562C131.104 76.0312 130.964 76.5938 130.964 77.3438C130.683 78.4688 130.495 79.1719 130.401 79.4531C130.401 79.6406 130.401 79.9219 130.401 80.2969C130.495 80.5781 130.636 80.9062 130.823 81.2812C131.011 81.6562 131.011 82.0781 130.823 82.5469C129.979 83.7656 129.558 84.8438 129.558 85.7812C129.558 86.7188 129.417 87.6094 129.136 88.4531C129.229 88.7344 129.37 88.9688 129.558 89.1562C129.745 89.25 129.886 89.4844 129.979 89.8594C129.886 90.7969 129.558 91.4531 128.995 91.8281C128.433 92.2031 127.917 92.625 127.448 93.0938C127.823 94.125 127.776 95.0156 127.308 95.7656C127.401 96.7969 127.401 97.7812 127.308 98.7188C127.214 99.5625 126.792 100.125 126.042 100.406C125.854 100.781 125.714 101.203 125.62 101.672C125.526 102.141 125.386 102.562 125.198 102.938C124.073 104.062 123.136 104.812 122.386 105.188C122.479 105.938 122.339 106.5 121.964 106.875C121.683 107.156 121.308 107.438 120.839 107.719C120.558 108.469 120.229 109.125 119.854 109.688C118.729 110.062 118.12 110.391 118.026 110.672C117.933 110.859 117.792 111.047 117.604 111.234C117.323 111.609 117.042 111.938 116.761 112.219C116.479 112.5 116.339 112.922 116.339 113.484C115.683 114.047 115.261 114.375 115.073 114.469C114.979 114.562 114.839 114.562 114.651 114.469C114.183 114.938 113.808 115.453 113.526 116.016C113.339 116.484 113.058 116.953 112.683 117.422C112.214 117.703 111.698 117.75 111.136 117.562C110.667 117.469 110.198 117.516 109.729 117.703C108.979 117.703 108.511 117.75 108.323 117.844C108.136 117.938 107.948 118.031 107.761 118.125C107.011 117.75 106.354 117.703 105.792 117.984C105.229 118.359 104.62 118.594 103.964 118.688C102.651 119.438 101.761 119.625 101.292 119.25C100.823 118.875 100.354 118.5 99.8856 118.125C99.2294 118.312 98.7606 118.594 98.4794 118.969C98.2919 119.438 97.8231 119.625 97.0731 119.531C96.6981 119.344 96.4169 119.062 96.2294 118.688C96.1356 118.406 95.9481 118.172 95.6669 117.984C95.2919 118.266 94.8231 118.312 94.2606 118.125C93.6981 118.031 93.3231 117.75 93.1356 117.281C92.3856 117.469 91.7294 117.375 91.1669 117C90.6981 116.719 90.2294 116.484 89.7606 116.297C89.2919 116.484 88.9169 116.484 88.6356 116.297C88.3544 116.109 87.9794 115.969 87.5106 115.875C87.0419 115.781 86.7138 115.875 86.5263 116.156C86.3388 116.344 86.0106 116.391 85.5419 116.297C85.1669 116.016 84.9794 115.453 84.9794 114.609C84.7919 114.234 84.5106 113.953 84.1356 113.766C83.8544 113.484 83.5731 113.25 83.2919 113.062C83.1044 112.312 82.7763 111.703 82.3075 111.234C81.8388 110.766 81.4638 110.156 81.1825 109.406C80.1513 108.656 79.495 108.188 79.2138 108C78.9325 107.719 78.745 107.391 78.6513 107.016C77.995 106.359 77.1981 105.797 76.2606 105.328C75.4169 104.859 74.7606 104.25 74.2919 103.5C74.5731 102.562 74.8075 101.766 74.995 101.109C74.1513 99.2344 73.5419 97.8281 73.1669 96.8906C73.3544 96.0469 73.3075 95.3438 73.0263 94.7812C72.745 94.2188 72.37 93.7031 71.9013 93.2344C71.995 92.7656 71.995 92.3438 71.9013 91.9688C71.9013 91.5 71.995 90.9844 72.1825 90.4219C72.0888 90.0469 71.9481 89.7656 71.7606 89.5781C71.6669 89.3906 71.5731 89.1562 71.4794 88.875C71.2919 87.9375 71.0575 87.3281 70.7763 87.0469C70.5888 86.7656 70.4013 86.3906 70.2138 85.9219C70.2138 85.4531 70.1669 85.0781 70.0731 84.7969C70.0731 84.4219 70.1669 84 70.3544 83.5312C70.1669 83.0625 70.0263 82.6406 69.9325 82.2656C69.9325 81.7969 69.8388 81.3281 69.6513 80.8594C69.9325 79.5469 69.8856 78.3281 69.5106 77.2031C69.1356 76.0781 69.1825 74.9062 69.6513 73.6875C70.3075 72.375 70.5419 71.1562 70.3544 70.0312C70.2606 68.8125 70.1669 67.6875 70.0731 66.6562C70.6356 65.25 70.87 64.125 70.7763 63.2812C70.6825 62.4375 70.7294 61.5938 70.9169 60.75C71.1044 60.1875 71.2919 59.6719 71.4794 59.2031C71.7606 58.6406 72.0419 58.125 72.3231 57.6562C72.2294 57.2812 72.1825 57 72.1825 56.8125C72.2763 56.5312 72.3231 56.1562 72.3231 55.6875C73.1669 54.4688 73.7294 53.1094 74.0106 51.6094C74.3856 50.0156 74.9481 48.6562 75.6981 47.5312C76.7294 46.2188 77.5263 45.2344 78.0888 44.5781C78.6513 43.8281 79.2138 43.0781 79.7763 42.3281C80.5263 41.8594 80.9481 41.4375 81.0419 41.0625C81.1356 40.5937 81.3231 40.1719 81.6044 39.7969C82.0731 39.6094 82.3544 39.3281 82.4481 38.9531C82.6356 38.5781 82.9638 38.2969 83.4325 38.1094C83.5263 37.6406 83.8075 37.1719 84.2763 36.7031L85.9638 36.2812C86.245 35.7188 86.4794 35.2031 86.6669 34.7344C86.9481 34.2656 87.37 33.9375 87.9325 33.75C89.245 33.8437 90.0419 33.6563 90.3231 33.1875C90.6981 32.625 91.3544 32.4375 92.2919 32.625C92.7606 32.4375 93.1356 32.0625 93.4169 31.5C93.6981 30.8438 94.2138 30.6094 94.9638 30.7969C95.62 31.8281 96.0888 32.2969 96.37 32.2031C96.745 32.0156 97.0263 31.8281 97.2138 31.6406C97.495 31.6406 97.7763 31.6406 98.0575 31.6406C98.3388 31.5469 98.6669 31.5 99.0419 31.5C99.4169 31.4063 99.6513 31.3125 99.745 31.2188C99.9325 31.125 100.214 31.125 100.589 31.2188C101.058 31.4063 101.339 31.6406 101.433 31.9219C101.526 32.2031 101.714 32.4375 101.995 32.625C102.464 32.7187 102.839 32.4375 103.12 31.7812C103.495 31.125 103.917 30.8438 104.386 30.9375C105.511 31.5937 106.401 32.0156 107.058 32.2031C107.714 32.2969 108.183 32.5781 108.464 33.0469C109.308 32.8594 109.729 32.8125 109.729 32.9062C109.823 33 109.964 33.0938 110.151 33.1875C111.37 34.125 112.401 34.7344 113.245 35.0156C114.183 35.2031 114.792 35.7188 115.073 36.5625C115.542 36.75 116.011 36.9375 116.479 37.125C116.948 37.2187 117.37 37.4062 117.745 37.6875C118.12 38.8125 118.448 39.375 118.729 39.375C119.104 39.375 119.433 39.4687 119.714 39.6562C119.901 40.2188 120.183 40.6875 120.558 41.0625C120.933 41.4375 121.214 41.9531 121.401 42.6094C122.151 43.8281 122.854 44.625 123.511 45C123.511 45.6562 123.651 46.1719 123.933 46.5469C124.308 46.8281 124.448 47.3438 124.354 48.0938C124.542 48.75 124.87 49.2656 125.339 49.6406C125.808 49.9219 126.276 50.2969 126.745 50.7656C127.495 50.7656 127.917 50.8125 128.011 50.9062C128.104 50.9062 128.245 51 128.433 51.1875C127.964 52.875 127.917 54.5156 128.292 56.1094C128.761 57.6094 128.948 59.25 128.854 61.0312C128.948 61.3125 129.089 61.5 129.276 61.5938C129.558 61.6875 129.792 61.875 129.979 62.1562C129.792 63.1875 129.933 64.0312 130.401 64.6875C130.401 65.25 130.401 65.8594 130.401 66.5156C130.401 67.0781 130.495 67.5938 130.683 68.0625C131.433 69.1875 131.714 69.9844 131.526 70.4531C131.339 70.8281 131.151 71.25 130.964 71.7188C131.151 72.75 131.292 73.3594 131.386 73.5469C131.573 73.6406 131.714 73.7812 131.808 73.9688ZM114.933 79.875C115.401 78.8438 115.542 78.2344 115.354 78.0469C115.261 77.7656 115.214 77.4844 115.214 77.2031C115.401 76.6406 115.542 76.125 115.636 75.6562C115.823 75.0938 115.776 74.5312 115.495 73.9688C115.401 72.6562 115.354 71.7188 115.354 71.1562C114.886 70.5938 114.511 69.9375 114.229 69.1875C114.042 68.4375 113.995 67.5469 114.089 66.5156C114.276 65.9531 114.37 65.3906 114.37 64.8281C114.464 64.2656 114.604 63.75 114.792 63.2812C113.386 62.25 112.589 61.3594 112.401 60.6094C112.308 59.8594 112.167 59.1094 111.979 58.3594C111.792 57.1406 111.558 56.2969 111.276 55.8281C111.089 55.2656 110.995 54.6094 110.995 53.8594C110.526 52.7344 110.198 51.9844 110.011 51.6094C108.979 50.6719 108.417 50.0625 108.323 49.7812C108.323 49.5 108.229 49.1719 108.042 48.7969C107.854 48.5156 107.667 48.2812 107.479 48.0938C107.292 47.8125 107.104 47.5312 106.917 47.25C106.073 46.5 105.511 45.9375 105.229 45.5625C104.948 45.0938 104.526 44.7656 103.964 44.5781C102.464 44.3906 101.526 44.2031 101.151 44.0156C100.308 44.2031 99.8388 44.3438 99.745 44.4375C99.6513 44.5312 99.4169 44.5781 99.0419 44.5781H96.9325C96.2763 45.3281 95.8075 45.6562 95.5263 45.5625C95.3388 45.4688 95.1513 45.375 94.9638 45.2812C94.6825 45.5625 94.5888 45.8906 94.6825 46.2656C94.7763 46.5469 94.87 46.8281 94.9638 47.1094C94.4013 47.3906 94.0263 47.4844 93.8388 47.3906C93.745 47.2969 93.5575 47.25 93.2763 47.25C92.62 48.1875 92.1513 48.9375 91.87 49.5C91.5888 50.9062 91.12 51.8438 90.4638 52.3125C89.9013 52.6875 89.5263 53.2969 89.3388 54.1406C89.5263 54.8906 89.3856 55.5469 88.9169 56.1094C88.5419 56.5781 88.1669 57.0469 87.7919 57.5156C88.1669 58.8281 88.0731 59.9531 87.5106 60.8906C87.0419 61.8281 86.5731 62.5781 86.1044 63.1406C86.1981 64.2656 86.1044 65.0156 85.8231 65.3906C85.6356 65.6719 85.4013 66.0469 85.12 66.5156C84.9325 66.9844 84.9794 67.3594 85.2606 67.6406C85.5419 67.9219 85.7294 68.25 85.8231 68.625C85.7294 69.0938 85.5419 69.4688 85.2606 69.75C85.0731 69.9375 84.9325 70.2656 84.8388 70.7344C84.9325 71.0156 85.0263 71.2969 85.12 71.5781C85.3075 71.8594 85.4013 72.1875 85.4013 72.5625C85.4013 73.0312 85.3075 73.4062 85.12 73.6875C84.9325 73.875 84.7919 74.1562 84.6981 74.5312C84.8856 74.9062 85.12 75.2344 85.4013 75.5156C85.7763 75.7031 85.9638 76.0312 85.9638 76.5C85.5888 77.8125 85.4013 78.7969 85.4013 79.4531C85.495 80.0156 85.5419 80.6719 85.5419 81.4219C85.9169 82.8281 86.0106 83.8125 85.8231 84.375C85.7294 84.9375 85.5888 85.4531 85.4013 85.9219C85.495 86.3906 85.6356 86.7656 85.8231 87.0469C86.1044 87.3281 86.3388 87.7031 86.5263 88.1719C86.4325 88.6406 86.3856 89.0625 86.3856 89.4375C86.4794 89.7188 86.5263 90.1406 86.5263 90.7031C86.995 91.3594 87.3231 91.7812 87.5106 91.9688C87.7919 92.0625 87.9794 92.2969 88.0731 92.6719C88.0731 93.0469 88.0731 93.4219 88.0731 93.7969C88.0731 94.1719 88.12 94.4531 88.2138 94.6406C89.4325 94.8281 89.9481 95.625 89.7606 97.0312C90.0419 97.4062 90.2763 97.7812 90.4638 98.1562C90.745 98.4375 90.9325 98.8594 91.0263 99.4219C91.6825 99.5156 92.0575 99.8906 92.1513 100.547C92.3388 101.203 92.3856 101.859 92.2919 102.516C92.5731 102.703 92.8544 102.938 93.1356 103.219C93.5106 103.406 93.9325 103.406 94.4013 103.219C94.87 103.406 95.1981 103.734 95.3856 104.203C95.5731 104.672 95.8075 105.094 96.0888 105.469C96.6513 105.375 97.1669 105.234 97.6356 105.047C98.1981 104.859 98.7138 104.906 99.1825 105.188C100.401 104.906 101.104 104.906 101.292 105.188C101.479 105.375 101.761 105.516 102.136 105.609C102.511 105.516 102.745 105.375 102.839 105.188C103.026 104.906 103.261 104.672 103.542 104.484C104.479 104.484 105.136 104.344 105.511 104.062C106.354 103.781 106.87 103.359 107.058 102.797C107.62 102.047 107.948 101.578 108.042 101.391C108.229 101.203 108.417 101.016 108.604 100.828C108.792 100.359 108.979 99.9844 109.167 99.7031C109.448 99.4219 109.729 99.1406 110.011 98.8594C110.948 98.0156 111.323 97.2656 111.136 96.6094C111.042 95.8594 111.229 95.25 111.698 94.7812C112.448 93.1875 112.964 92.1562 113.245 91.6875C113.151 91.3125 113.151 90.9375 113.245 90.5625C113.339 90.1875 113.386 89.7656 113.386 89.2969C113.948 88.0781 114.323 87.1875 114.511 86.625C114.792 85.9688 115.026 85.2656 115.214 84.5156C115.026 83.9531 114.839 83.3438 114.651 82.6875C114.464 82.0312 114.558 81.4219 114.933 80.8594V79.875ZM198.672 80.1562C198.953 79.9688 199.328 79.7344 199.797 79.4531C200.266 79.1719 200.734 79.2656 201.203 79.7344C201.016 80.2031 200.641 80.625 200.078 81C199.516 81.2812 199.328 81.7969 199.516 82.5469C198.953 83.1094 198.578 83.625 198.391 84.0938C198.297 84.4688 198.156 84.8906 197.969 85.3594C197.875 85.8281 198.156 86.3438 198.812 86.9062C199.469 87.375 199.75 87.8438 199.656 88.3125C198.625 88.875 198.109 89.3438 198.109 89.7188C198.203 90 198.344 90.2344 198.531 90.4219C198.625 90.5156 198.672 91.0781 198.672 92.1094C198.672 93.0469 198.672 94.1719 198.672 95.4844C198.766 96.7031 198.812 97.9219 198.812 99.1406C198.812 100.266 198.859 101.109 198.953 101.672C199.141 102.047 199.281 102.422 199.375 102.797C199.562 103.172 199.562 103.547 199.375 103.922C198.812 104.297 198.766 105.047 199.234 106.172C199.797 107.297 200.172 108.188 200.359 108.844C199.234 109.406 198.812 110.016 199.094 110.672C199.375 111.328 199.609 111.844 199.797 112.219C199.047 113.25 198.625 114 198.531 114.469C199 115.406 199.281 115.922 199.375 116.016C199.562 116.109 199.703 116.25 199.797 116.438C199.609 117.562 199.328 118.125 198.953 118.125C198.672 118.125 198.344 118.219 197.969 118.406C197.781 118.219 197.406 118.078 196.844 117.984C196.375 117.891 195.859 117.844 195.297 117.844C195.297 118.406 194.875 118.781 194.031 118.969C193.562 119.906 193.234 120.469 193.047 120.656C192.859 120.844 192.672 120.984 192.484 121.078C192.766 122.297 192.672 122.859 192.203 122.766C191.828 122.766 191.406 122.906 190.938 123.188C190.844 124.125 190.75 124.547 190.656 124.453C190.656 124.453 190.562 124.547 190.375 124.734C190 125.953 189.812 126.703 189.812 126.984C189.812 127.359 189.719 127.688 189.531 127.969C189.344 128.812 189.156 129.234 188.969 129.234C188.781 129.234 188.688 129.328 188.688 129.516C189.25 130.453 189.344 131.062 188.969 131.344C188.031 132 187.516 132.047 187.422 131.484C187.422 131.016 187.375 130.594 187.281 130.219C186.625 129.562 186.344 129.094 186.438 128.812C186.625 128.625 186.719 128.438 186.719 128.25C186.719 127.312 186.719 126.703 186.719 126.422C186.812 126.141 187 125.812 187.281 125.438C186.719 124.688 186.531 124.219 186.719 124.031C186.906 123.938 187 123.797 187 123.609C186.812 122.391 186.672 121.547 186.578 121.078C186.859 120.703 187.234 120.328 187.703 119.953C188.266 119.578 188.406 119.156 188.125 118.688C187 117.844 186.438 117.234 186.438 116.859C186.531 116.578 186.625 116.297 186.719 116.016C186.812 115.734 186.906 115.359 187 114.891C187.188 114.047 187.281 113.578 187.281 113.484C187.375 113.391 187.422 113.25 187.422 113.062C186.484 113.156 185.875 113.344 185.594 113.625C185.312 113.812 184.938 114 184.469 114.188C183.812 115.5 182.922 116.391 181.797 116.859C180.391 116.953 179.5 117.047 179.125 117.141C178.844 117.328 178.609 117.516 178.422 117.703C177.766 117.609 177.156 117.609 176.594 117.703C174.906 117.797 173.547 118.078 172.516 118.547C171.297 119.016 170.406 119.25 169.844 119.25C169.375 119.344 168.906 119.297 168.438 119.109C167.969 119.203 167.547 119.344 167.172 119.531C166.797 119.719 166.328 119.766 165.766 119.672C165.297 119.016 164.875 118.734 164.5 118.828C164.219 118.922 163.984 118.875 163.797 118.688C162.953 118.781 162.344 118.734 161.969 118.547C161.594 118.453 161.172 118.359 160.703 118.266C159.766 117.516 159.203 117.094 159.016 117C158.922 116.812 158.688 116.625 158.312 116.438C158.125 115.781 157.797 115.312 157.328 115.031C156.859 114.656 156.438 114.234 156.062 113.766C155.5 113.672 155.031 113.531 154.656 113.344C154.375 113.062 153.906 112.875 153.25 112.781C152.969 112.594 152.641 112.406 152.266 112.219C151.984 111.938 151.75 111.609 151.562 111.234C151.562 110.297 151.422 109.781 151.141 109.688C150.953 109.594 150.766 109.453 150.578 109.266C149.922 109.266 149.5 108.938 149.312 108.281C149.5 107.812 149.641 107.344 149.734 106.875C149.922 106.406 150.062 105.891 150.156 105.328C149.406 105.328 148.844 105.188 148.469 104.906C148.094 104.531 147.578 104.391 146.922 104.484C146.547 104.297 146.312 103.969 146.219 103.5C146.125 103.031 146.172 102.562 146.359 102.094C146.172 101.625 145.891 101.344 145.516 101.25C145.141 101.062 144.859 100.781 144.672 100.406C144.203 99.4688 143.969 98.6719 143.969 98.0156C144.062 97.2656 144.156 96.5156 144.25 95.7656C144.156 95.2969 143.875 94.8281 143.406 94.3594C143.312 93.8906 143.266 93.5625 143.266 93.375C143.359 93.0938 143.453 92.7188 143.547 92.25C143.453 91.2188 143.406 90.6094 143.406 90.4219C143.5 90.2344 143.547 89.9062 143.547 89.4375C142.609 88.5938 142.047 88.0781 141.859 87.8906C141.766 87.6094 141.672 87.2812 141.578 86.9062C141.672 85.7812 141.625 85.2188 141.438 85.2188C141.344 85.125 141.25 84.9844 141.156 84.7969C141.156 83.7656 141.109 82.8281 141.016 81.9844C141.016 81.1406 141.156 80.2969 141.438 79.4531C141.438 79.0781 141.297 78.7969 141.016 78.6094C140.828 78.3281 140.734 77.9531 140.734 77.4844C140.641 77.1094 140.688 76.7812 140.875 76.5C141.156 76.2188 141.297 75.8438 141.297 75.375C140.641 73.875 140.453 72.9844 140.734 72.7031C141.109 72.4219 141.297 71.9062 141.297 71.1562C140.922 70.7812 140.641 70.3125 140.453 69.75C140.359 69.1875 140.5 68.625 140.875 68.0625C141.156 67.7812 141.438 67.5938 141.719 67.5C142.094 67.3125 142.422 67.0312 142.703 66.6562C142.797 66.1875 142.797 65.7188 142.703 65.25C142.703 64.7812 142.75 64.3594 142.844 63.9844C142.938 63.7031 143.031 63.4688 143.125 63.2812C143.312 63 143.453 62.7656 143.547 62.5781C143.641 62.1094 143.734 61.6875 143.828 61.3125C143.922 60.8438 144.062 60.375 144.25 59.9062C144.438 59.625 144.672 59.2969 144.953 58.9219C145.234 58.5469 145.516 58.2656 145.797 58.0781C145.422 56.9531 145.188 56.1562 145.094 55.6875C145.094 55.125 145.188 54.6094 145.375 54.1406C145.562 53.6719 145.797 53.2969 146.078 53.0156C146.359 52.7344 146.641 52.3594 146.922 51.8906C147.109 51.5156 147.297 51.1875 147.484 50.9062C147.672 50.5312 147.859 50.1094 148.047 49.6406C148.422 49.1719 148.797 48.7969 149.172 48.5156C149.641 48.2344 150.016 47.8594 150.297 47.3906C150.578 46.5469 150.766 46.125 150.859 46.125C151.047 46.125 151.188 46.0781 151.281 45.9844C151.375 44.6719 152.125 43.7813 153.531 43.3125C154 42 154.656 41.0156 155.5 40.3594C156.438 39.6094 157.375 38.9062 158.312 38.25C159.156 38.0625 159.812 38.0156 160.281 38.1094C161.312 36.7031 162.156 35.8594 162.812 35.5781C163.469 35.2031 164.172 34.9219 164.922 34.7344C165.766 33.9844 166.281 33.6094 166.469 33.6094C166.75 33.6094 166.984 33.5625 167.172 33.4688C167.547 33.4688 167.828 33.4219 168.016 33.3281C168.297 33.1406 168.578 33.0469 168.859 33.0469C169.422 32.8594 169.938 32.625 170.406 32.3438C170.969 32.0625 171.625 31.9688 172.375 32.0625C173.031 32.3438 173.453 32.9062 173.641 33.75C174.109 33.5625 174.625 33.4688 175.188 33.4688C175.75 33.4688 176.266 33.6094 176.734 33.8906C177.203 33.7031 177.672 33.6094 178.141 33.6094C178.609 33.5156 179.078 33.5625 179.547 33.75C179.734 33.9375 179.875 34.2188 179.969 34.5938C180.062 34.9687 180.203 35.25 180.391 35.4375C180.672 35.5312 180.906 35.5781 181.094 35.5781C181.375 35.5781 181.656 35.625 181.938 35.7188C182.594 36 183.016 36.375 183.203 36.8438C183.484 37.3125 183.859 37.6875 184.328 37.9688C184.891 38.0625 185.406 38.1563 185.875 38.25C186.344 38.3437 186.766 38.4844 187.141 38.6719C187.328 39.8906 187.703 40.5469 188.266 40.6406C188.828 40.7344 189.25 40.875 189.531 41.0625C190 41.0625 190.422 41.1094 190.797 41.2031C191.172 41.2031 191.5 41.3438 191.781 41.625C191.781 43.0312 192.109 44.1094 192.766 44.8594C193.891 45.0469 194.5 45.2344 194.594 45.4219C194.781 45.6094 194.969 45.7969 195.156 45.9844C195.719 46.4531 196.047 46.8281 196.141 47.1094C196.234 47.2969 196.328 47.5312 196.422 47.8125C196.891 48.2812 197.078 48.8438 196.984 49.5C196.703 49.9688 196.797 50.3906 197.266 50.7656C197.828 51.1406 198.016 51.4219 197.828 51.6094C196.891 51.8906 196.422 52.1719 196.422 52.4531C195.859 52.7344 195.391 52.9688 195.016 53.1562C194.641 53.3438 194.266 53.3438 193.891 53.1562C193.703 53.4375 193.469 53.7656 193.188 54.1406C192.906 54.4219 192.438 54.5625 191.781 54.5625C191.219 55.5938 190.516 56.4375 189.672 57.0938C188.172 56.9062 187.422 57.0938 187.422 57.6562C187.516 58.2188 187.516 58.7344 187.422 59.2031C187.234 59.3906 187.047 59.5781 186.859 59.7656C186.672 59.9531 186.484 60.1875 186.297 60.4688C185.266 61.0312 184.75 61.4062 184.75 61.5938C184.75 61.7812 184.656 61.9688 184.469 62.1562C183.344 62.7188 182.359 63.1875 181.516 63.5625C180.766 64.0312 180.344 64.3594 180.25 64.5469C180.156 64.7344 180.016 64.875 179.828 64.9688C178.797 65.0625 178.047 65.3438 177.578 65.8125C177.203 66.1875 176.781 66.1406 176.312 65.6719C176.5 64.2656 176.781 63.4219 177.156 63.1406C177.719 62.2031 178.047 61.6875 178.141 61.5938C178.328 61.5 178.516 61.3594 178.703 61.1719C178.703 60.7031 178.844 60.3281 179.125 60.0469C179.406 59.7656 179.641 59.4375 179.828 59.0625C179.828 58.5938 179.969 58.0781 180.25 57.5156C180.156 56.8594 180.156 56.4844 180.25 56.3906C180.438 56.2031 180.625 56.0156 180.812 55.8281C180.625 55.2656 180.344 54.7969 179.969 54.4219C179.688 54.0469 179.594 53.4844 179.688 52.7344C180.531 52.3594 180.906 52.0781 180.812 51.8906C180.719 51.7031 180.625 51.5156 180.531 51.3281C179.875 50.7656 179.359 50.3906 178.984 50.2031C178.703 50.0156 178.375 49.7812 178 49.5C177.719 49.4062 177.438 49.4062 177.156 49.5C176.969 49.5 176.688 49.4062 176.312 49.2188C175.938 48.0938 175.562 47.5781 175.188 47.6719C174.812 47.6719 174.484 47.625 174.203 47.5312C174.016 47.3438 173.781 47.1094 173.5 46.8281C173.312 46.5469 173.031 46.3594 172.656 46.2656C171.062 46.9219 169.891 47.4375 169.141 47.8125C168.484 48.1875 167.781 48.5625 167.031 48.9375C166.094 49.125 165.438 49.3594 165.062 49.6406C164.781 49.8281 164.406 50.0625 163.938 50.3438C163.562 51 163.141 51.6094 162.672 52.1719C162.297 52.6406 162.016 53.3438 161.828 54.2812C161.641 54.4688 161.453 54.6562 161.266 54.8438C161.078 55.0312 160.891 55.2188 160.703 55.4062C160.703 56.7188 160.609 57.5156 160.422 57.7969C160.328 58.0781 160.234 58.4531 160.141 58.9219C159.391 59.8594 159.062 60.4219 159.156 60.6094C159.25 60.7969 159.297 60.9844 159.297 61.1719C159.109 61.5469 158.875 61.875 158.594 62.1562C158.312 62.4375 158.078 62.7188 157.891 63C158.172 64.3125 158.219 65.0625 158.031 65.25C157.938 65.4375 157.844 65.625 157.75 65.8125C157.75 66.1875 157.797 66.4688 157.891 66.6562C158.078 66.8438 158.172 67.125 158.172 67.5C158.078 67.9688 157.891 68.3438 157.609 68.625C157.422 68.8125 157.234 69.0938 157.047 69.4688C157.516 70.2188 157.516 71.1562 157.047 72.2812C157.516 73.4062 157.656 74.2031 157.469 74.6719C157.375 75.0469 157.422 75.4219 157.609 75.7969C157.516 76.6406 157.375 77.25 157.188 77.625C157.094 77.9062 156.953 78.2344 156.766 78.6094C157.047 79.5469 157.375 80.1094 157.75 80.2969C157.844 80.8594 157.797 81.3281 157.609 81.7031C157.422 81.9844 157.281 82.3594 157.188 82.8281C158.031 83.3906 158.359 83.9062 158.172 84.375C158.078 84.75 157.844 85.0312 157.469 85.2188C157.281 85.875 157.234 86.4375 157.328 86.9062C157.703 87 157.938 87.2344 158.031 87.6094C158.219 87.8906 158.266 88.1719 158.172 88.4531C159.016 89.1094 159.344 89.5312 159.156 89.7188C159.062 89.8125 158.969 89.9531 158.875 90.1406C158.875 90.6094 158.969 91.2188 159.156 91.9688C158.875 92.5312 158.781 93.0938 158.875 93.6562C159.062 94.2188 159.344 94.6406 159.719 94.9219C159.531 95.3906 159.344 95.8594 159.156 96.3281C159.062 96.7969 159.109 97.2656 159.297 97.7344C159.578 97.7344 159.859 97.7344 160.141 97.7344C160.516 97.7344 160.797 97.8281 160.984 98.0156C161.172 98.6719 161.031 99.3281 160.562 99.9844C160.75 100.453 161.078 100.781 161.547 100.969C162.016 101.156 162.438 101.438 162.812 101.812C163.094 101.719 163.469 101.719 163.938 101.812C164.5 101.812 164.828 102 164.922 102.375C165.016 103.125 165.344 103.406 165.906 103.219C166.562 103.031 167.031 103.172 167.312 103.641C167.312 104.016 167.172 104.25 166.891 104.344C166.703 104.438 166.562 104.672 166.469 105.047C167.5 105.422 168.016 105.703 168.016 105.891C168.016 105.984 168.062 106.125 168.156 106.312C169.469 106.125 170.453 106.125 171.109 106.312C171.766 106.5 172.328 106.5 172.797 106.312C173.172 106.125 173.5 106.031 173.781 106.031C174.062 106.031 174.344 105.938 174.625 105.75C174.812 105.75 175.375 105.75 176.312 105.75C177.25 105.656 177.812 105.562 178 105.469C178.375 105.281 178.75 105.188 179.125 105.188C179.5 105.094 179.875 104.906 180.25 104.625C180.812 104.062 181.375 103.359 181.938 102.516C182.125 102.328 182.359 102.188 182.641 102.094C183.016 101.906 183.297 101.766 183.484 101.672C183.766 100.828 184.047 100.266 184.328 99.9844C184.609 99.7031 184.844 99.3281 185.031 98.8594V97.3125C185.5 96.75 185.781 96.1875 185.875 95.625C186.062 94.9688 186.062 94.4531 185.875 94.0781C186.156 93.5156 186.531 93 187 92.5312C186.906 92.0625 186.859 91.5 186.859 90.8438C186.859 90.0938 186.859 89.5781 186.859 89.2969C186.766 88.9219 186.391 88.7812 185.734 88.875C185.078 88.9688 184.656 88.875 184.469 88.5938C184.094 88.5938 183.719 88.7812 183.344 89.1562C182.969 89.5312 182.547 89.7188 182.078 89.7188C180.578 89.0625 179.688 88.9219 179.406 89.2969C179.125 89.5781 178.656 89.9062 178 90.2812L175.188 89.4375C174.25 88.9688 173.688 88.8281 173.5 89.0156C173.406 89.2031 173.219 89.2969 172.938 89.2969C172.375 89.4844 171.859 89.5781 171.391 89.5781C171.203 88.4531 171.25 87.7031 171.531 87.3281C171.906 86.9531 172.094 86.3906 172.094 85.6406C172.188 83.8594 172.516 82.7344 173.078 82.2656C172.516 81.9844 172.188 81.5156 172.094 80.8594C171.625 79.8281 171.672 79.4062 172.234 79.5938C172.797 79.6875 173.312 79.6406 173.781 79.4531C175.188 79.0781 176.125 78.9375 176.594 79.0312C177.156 79.125 177.719 79.1719 178.281 79.1719C179.125 79.0781 179.641 78.9844 179.828 78.8906C180.016 78.7031 180.25 78.5625 180.531 78.4688C181.281 78.5625 181.891 78.7031 182.359 78.8906C182.828 78.9844 183.438 79.0312 184.188 79.0312C185.219 78.9375 185.734 78.9844 185.734 79.1719C185.828 79.2656 185.969 79.3594 186.156 79.4531C186.719 79.4531 187.281 79.4062 187.844 79.3125C188.406 79.125 188.969 79.125 189.531 79.3125C190.375 79.125 190.891 79.0781 191.078 79.1719C191.266 79.2656 191.453 79.3594 191.641 79.4531C192.109 79.2656 192.625 79.125 193.188 79.0312C193.844 78.9375 194.312 79.125 194.594 79.5938C194.969 79.5 195.25 79.5469 195.438 79.7344C195.719 79.8281 196 79.9688 196.281 80.1562C197.219 79.7812 198.016 79.7812 198.672 80.1562ZM270.177 73.9688C270.177 74.7188 270.036 75.2812 269.755 75.6562C269.474 76.0312 269.333 76.5938 269.333 77.3438C269.052 78.4688 268.864 79.1719 268.771 79.4531C268.771 79.6406 268.771 79.9219 268.771 80.2969C268.864 80.5781 269.005 80.9062 269.193 81.2812C269.38 81.6562 269.38 82.0781 269.193 82.5469C268.349 83.7656 267.927 84.8438 267.927 85.7812C267.927 86.7188 267.786 87.6094 267.505 88.4531C267.599 88.7344 267.739 88.9688 267.927 89.1562C268.114 89.25 268.255 89.4844 268.349 89.8594C268.255 90.7969 267.927 91.4531 267.364 91.8281C266.802 92.2031 266.286 92.625 265.818 93.0938C266.193 94.125 266.146 95.0156 265.677 95.7656C265.771 96.7969 265.771 97.7812 265.677 98.7188C265.583 99.5625 265.161 100.125 264.411 100.406C264.224 100.781 264.083 101.203 263.989 101.672C263.896 102.141 263.755 102.562 263.568 102.938C262.443 104.062 261.505 104.812 260.755 105.188C260.849 105.938 260.708 106.5 260.333 106.875C260.052 107.156 259.677 107.438 259.208 107.719C258.927 108.469 258.599 109.125 258.224 109.688C257.099 110.062 256.489 110.391 256.396 110.672C256.302 110.859 256.161 111.047 255.974 111.234C255.693 111.609 255.411 111.938 255.13 112.219C254.849 112.5 254.708 112.922 254.708 113.484C254.052 114.047 253.63 114.375 253.443 114.469C253.349 114.562 253.208 114.562 253.021 114.469C252.552 114.938 252.177 115.453 251.896 116.016C251.708 116.484 251.427 116.953 251.052 117.422C250.583 117.703 250.068 117.75 249.505 117.562C249.036 117.469 248.568 117.516 248.099 117.703C247.349 117.703 246.88 117.75 246.693 117.844C246.505 117.938 246.318 118.031 246.13 118.125C245.38 117.75 244.724 117.703 244.161 117.984C243.599 118.359 242.989 118.594 242.333 118.688C241.021 119.438 240.13 119.625 239.661 119.25C239.193 118.875 238.724 118.5 238.255 118.125C237.599 118.312 237.13 118.594 236.849 118.969C236.661 119.438 236.193 119.625 235.443 119.531C235.068 119.344 234.786 119.062 234.599 118.688C234.505 118.406 234.318 118.172 234.036 117.984C233.661 118.266 233.193 118.312 232.63 118.125C232.068 118.031 231.693 117.75 231.505 117.281C230.755 117.469 230.099 117.375 229.536 117C229.068 116.719 228.599 116.484 228.13 116.297C227.661 116.484 227.286 116.484 227.005 116.297C226.724 116.109 226.349 115.969 225.88 115.875C225.411 115.781 225.083 115.875 224.896 116.156C224.708 116.344 224.38 116.391 223.911 116.297C223.536 116.016 223.349 115.453 223.349 114.609C223.161 114.234 222.88 113.953 222.505 113.766C222.224 113.484 221.943 113.25 221.661 113.062C221.474 112.312 221.146 111.703 220.677 111.234C220.208 110.766 219.833 110.156 219.552 109.406C218.521 108.656 217.864 108.188 217.583 108C217.302 107.719 217.114 107.391 217.021 107.016C216.364 106.359 215.568 105.797 214.63 105.328C213.786 104.859 213.13 104.25 212.661 103.5C212.943 102.562 213.177 101.766 213.364 101.109C212.521 99.2344 211.911 97.8281 211.536 96.8906C211.724 96.0469 211.677 95.3438 211.396 94.7812C211.114 94.2188 210.739 93.7031 210.271 93.2344C210.364 92.7656 210.364 92.3438 210.271 91.9688C210.271 91.5 210.364 90.9844 210.552 90.4219C210.458 90.0469 210.318 89.7656 210.13 89.5781C210.036 89.3906 209.943 89.1562 209.849 88.875C209.661 87.9375 209.427 87.3281 209.146 87.0469C208.958 86.7656 208.771 86.3906 208.583 85.9219C208.583 85.4531 208.536 85.0781 208.443 84.7969C208.443 84.4219 208.536 84 208.724 83.5312C208.536 83.0625 208.396 82.6406 208.302 82.2656C208.302 81.7969 208.208 81.3281 208.021 80.8594C208.302 79.5469 208.255 78.3281 207.88 77.2031C207.505 76.0781 207.552 74.9062 208.021 73.6875C208.677 72.375 208.911 71.1562 208.724 70.0312C208.63 68.8125 208.536 67.6875 208.443 66.6562C209.005 65.25 209.239 64.125 209.146 63.2812C209.052 62.4375 209.099 61.5938 209.286 60.75C209.474 60.1875 209.661 59.6719 209.849 59.2031C210.13 58.6406 210.411 58.125 210.693 57.6562C210.599 57.2812 210.552 57 210.552 56.8125C210.646 56.5312 210.693 56.1562 210.693 55.6875C211.536 54.4688 212.099 53.1094 212.38 51.6094C212.755 50.0156 213.318 48.6562 214.068 47.5312C215.099 46.2188 215.896 45.2344 216.458 44.5781C217.021 43.8281 217.583 43.0781 218.146 42.3281C218.896 41.8594 219.318 41.4375 219.411 41.0625C219.505 40.5937 219.693 40.1719 219.974 39.7969C220.443 39.6094 220.724 39.3281 220.818 38.9531C221.005 38.5781 221.333 38.2969 221.802 38.1094C221.896 37.6406 222.177 37.1719 222.646 36.7031L224.333 36.2812C224.614 35.7188 224.849 35.2031 225.036 34.7344C225.318 34.2656 225.739 33.9375 226.302 33.75C227.614 33.8437 228.411 33.6563 228.693 33.1875C229.068 32.625 229.724 32.4375 230.661 32.625C231.13 32.4375 231.505 32.0625 231.786 31.5C232.068 30.8438 232.583 30.6094 233.333 30.7969C233.989 31.8281 234.458 32.2969 234.739 32.2031C235.114 32.0156 235.396 31.8281 235.583 31.6406C235.864 31.6406 236.146 31.6406 236.427 31.6406C236.708 31.5469 237.036 31.5 237.411 31.5C237.786 31.4063 238.021 31.3125 238.114 31.2188C238.302 31.125 238.583 31.125 238.958 31.2188C239.427 31.4063 239.708 31.6406 239.802 31.9219C239.896 32.2031 240.083 32.4375 240.364 32.625C240.833 32.7187 241.208 32.4375 241.489 31.7812C241.864 31.125 242.286 30.8438 242.755 30.9375C243.88 31.5937 244.771 32.0156 245.427 32.2031C246.083 32.2969 246.552 32.5781 246.833 33.0469C247.677 32.8594 248.099 32.8125 248.099 32.9062C248.193 33 248.333 33.0938 248.521 33.1875C249.739 34.125 250.771 34.7344 251.614 35.0156C252.552 35.2031 253.161 35.7188 253.443 36.5625C253.911 36.75 254.38 36.9375 254.849 37.125C255.318 37.2187 255.739 37.4062 256.114 37.6875C256.489 38.8125 256.818 39.375 257.099 39.375C257.474 39.375 257.802 39.4687 258.083 39.6562C258.271 40.2188 258.552 40.6875 258.927 41.0625C259.302 41.4375 259.583 41.9531 259.771 42.6094C260.521 43.8281 261.224 44.625 261.88 45C261.88 45.6562 262.021 46.1719 262.302 46.5469C262.677 46.8281 262.818 47.3438 262.724 48.0938C262.911 48.75 263.239 49.2656 263.708 49.6406C264.177 49.9219 264.646 50.2969 265.114 50.7656C265.864 50.7656 266.286 50.8125 266.38 50.9062C266.474 50.9062 266.614 51 266.802 51.1875C266.333 52.875 266.286 54.5156 266.661 56.1094C267.13 57.6094 267.318 59.25 267.224 61.0312C267.318 61.3125 267.458 61.5 267.646 61.5938C267.927 61.6875 268.161 61.875 268.349 62.1562C268.161 63.1875 268.302 64.0312 268.771 64.6875C268.771 65.25 268.771 65.8594 268.771 66.5156C268.771 67.0781 268.864 67.5938 269.052 68.0625C269.802 69.1875 270.083 69.9844 269.896 70.4531C269.708 70.8281 269.521 71.25 269.333 71.7188C269.521 72.75 269.661 73.3594 269.755 73.5469C269.943 73.6406 270.083 73.7812 270.177 73.9688ZM253.302 79.875C253.771 78.8438 253.911 78.2344 253.724 78.0469C253.63 77.7656 253.583 77.4844 253.583 77.2031C253.771 76.6406 253.911 76.125 254.005 75.6562C254.193 75.0938 254.146 74.5312 253.864 73.9688C253.771 72.6562 253.724 71.7188 253.724 71.1562C253.255 70.5938 252.88 69.9375 252.599 69.1875C252.411 68.4375 252.364 67.5469 252.458 66.5156C252.646 65.9531 252.739 65.3906 252.739 64.8281C252.833 64.2656 252.974 63.75 253.161 63.2812C251.755 62.25 250.958 61.3594 250.771 60.6094C250.677 59.8594 250.536 59.1094 250.349 58.3594C250.161 57.1406 249.927 56.2969 249.646 55.8281C249.458 55.2656 249.364 54.6094 249.364 53.8594C248.896 52.7344 248.568 51.9844 248.38 51.6094C247.349 50.6719 246.786 50.0625 246.693 49.7812C246.693 49.5 246.599 49.1719 246.411 48.7969C246.224 48.5156 246.036 48.2812 245.849 48.0938C245.661 47.8125 245.474 47.5312 245.286 47.25C244.443 46.5 243.88 45.9375 243.599 45.5625C243.318 45.0938 242.896 44.7656 242.333 44.5781C240.833 44.3906 239.896 44.2031 239.521 44.0156C238.677 44.2031 238.208 44.3438 238.114 44.4375C238.021 44.5312 237.786 44.5781 237.411 44.5781H235.302C234.646 45.3281 234.177 45.6562 233.896 45.5625C233.708 45.4688 233.521 45.375 233.333 45.2812C233.052 45.5625 232.958 45.8906 233.052 46.2656C233.146 46.5469 233.239 46.8281 233.333 47.1094C232.771 47.3906 232.396 47.4844 232.208 47.3906C232.114 47.2969 231.927 47.25 231.646 47.25C230.989 48.1875 230.521 48.9375 230.239 49.5C229.958 50.9062 229.489 51.8438 228.833 52.3125C228.271 52.6875 227.896 53.2969 227.708 54.1406C227.896 54.8906 227.755 55.5469 227.286 56.1094C226.911 56.5781 226.536 57.0469 226.161 57.5156C226.536 58.8281 226.443 59.9531 225.88 60.8906C225.411 61.8281 224.943 62.5781 224.474 63.1406C224.568 64.2656 224.474 65.0156 224.193 65.3906C224.005 65.6719 223.771 66.0469 223.489 66.5156C223.302 66.9844 223.349 67.3594 223.63 67.6406C223.911 67.9219 224.099 68.25 224.193 68.625C224.099 69.0938 223.911 69.4688 223.63 69.75C223.443 69.9375 223.302 70.2656 223.208 70.7344C223.302 71.0156 223.396 71.2969 223.489 71.5781C223.677 71.8594 223.771 72.1875 223.771 72.5625C223.771 73.0312 223.677 73.4062 223.489 73.6875C223.302 73.875 223.161 74.1562 223.068 74.5312C223.255 74.9062 223.489 75.2344 223.771 75.5156C224.146 75.7031 224.333 76.0312 224.333 76.5C223.958 77.8125 223.771 78.7969 223.771 79.4531C223.864 80.0156 223.911 80.6719 223.911 81.4219C224.286 82.8281 224.38 83.8125 224.193 84.375C224.099 84.9375 223.958 85.4531 223.771 85.9219C223.864 86.3906 224.005 86.7656 224.193 87.0469C224.474 87.3281 224.708 87.7031 224.896 88.1719C224.802 88.6406 224.755 89.0625 224.755 89.4375C224.849 89.7188 224.896 90.1406 224.896 90.7031C225.364 91.3594 225.693 91.7812 225.88 91.9688C226.161 92.0625 226.349 92.2969 226.443 92.6719C226.443 93.0469 226.443 93.4219 226.443 93.7969C226.443 94.1719 226.489 94.4531 226.583 94.6406C227.802 94.8281 228.318 95.625 228.13 97.0312C228.411 97.4062 228.646 97.7812 228.833 98.1562C229.114 98.4375 229.302 98.8594 229.396 99.4219C230.052 99.5156 230.427 99.8906 230.521 100.547C230.708 101.203 230.755 101.859 230.661 102.516C230.943 102.703 231.224 102.938 231.505 103.219C231.88 103.406 232.302 103.406 232.771 103.219C233.239 103.406 233.568 103.734 233.755 104.203C233.943 104.672 234.177 105.094 234.458 105.469C235.021 105.375 235.536 105.234 236.005 105.047C236.568 104.859 237.083 104.906 237.552 105.188C238.771 104.906 239.474 104.906 239.661 105.188C239.849 105.375 240.13 105.516 240.505 105.609C240.88 105.516 241.114 105.375 241.208 105.188C241.396 104.906 241.63 104.672 241.911 104.484C242.849 104.484 243.505 104.344 243.88 104.062C244.724 103.781 245.239 103.359 245.427 102.797C245.989 102.047 246.318 101.578 246.411 101.391C246.599 101.203 246.786 101.016 246.974 100.828C247.161 100.359 247.349 99.9844 247.536 99.7031C247.818 99.4219 248.099 99.1406 248.38 98.8594C249.318 98.0156 249.693 97.2656 249.505 96.6094C249.411 95.8594 249.599 95.25 250.068 94.7812C250.818 93.1875 251.333 92.1562 251.614 91.6875C251.521 91.3125 251.521 90.9375 251.614 90.5625C251.708 90.1875 251.755 89.7656 251.755 89.2969C252.318 88.0781 252.693 87.1875 252.88 86.625C253.161 85.9688 253.396 85.2656 253.583 84.5156C253.396 83.9531 253.208 83.3438 253.021 82.6875C252.833 82.0312 252.927 81.4219 253.302 80.8594V79.875ZM306.807 79.5C307.015 80.0208 307.224 80.3854 307.432 80.5938C307.744 80.8021 308.005 81.1146 308.213 81.5312C308.005 83.6146 307.432 85.0208 306.494 85.75C306.494 86.375 306.599 87.1042 306.807 87.9375C306.703 88.3542 306.703 88.7708 306.807 89.1875C307.015 89.6042 306.911 89.9167 306.494 90.125C305.869 89.5 305.453 89.1875 305.244 89.1875C305.036 89.1875 304.828 89.1354 304.619 89.0312C304.203 89.2396 303.942 89.5 303.838 89.8125C303.734 90.0208 303.474 90.1771 303.057 90.2812C302.536 90.3854 302.067 90.3333 301.651 90.125C301.338 89.8125 300.974 89.5521 300.557 89.3438C300.036 88.7188 299.411 88.875 298.682 89.8125C298.057 90.6458 297.38 91.0104 296.651 90.9062C295.192 90.4896 294.255 90.3854 293.838 90.5938C293.421 90.8021 292.849 90.9062 292.119 90.9062C291.078 90.6979 290.296 90.6979 289.776 90.9062C289.359 91.0104 288.89 90.9062 288.369 90.5938C287.849 90.6979 287.328 90.9583 286.807 91.375C286.286 91.7917 285.713 91.7396 285.088 91.2188C285.296 90.8021 285.557 90.5417 285.869 90.4375C286.286 90.2292 286.599 89.9688 286.807 89.6562C286.599 88.3021 286.755 87.4167 287.276 87C287.901 86.4792 288.369 85.8542 288.682 85.125C288.161 84.9167 287.588 84.8646 286.963 84.9688C286.338 84.9688 285.921 84.7604 285.713 84.3438C285.921 83.5104 286.234 82.7812 286.651 82.1562C287.171 81.5312 287.536 80.75 287.744 79.8125C287.744 78.875 287.692 78.1979 287.588 77.7812C287.588 77.0521 287.796 76.2708 288.213 75.4375C288.421 74.3958 288.734 73.5104 289.151 72.7812C288.942 72.1562 288.786 71.5312 288.682 70.9062C288.682 70.1771 288.63 69.4479 288.526 68.7188C288.63 68.0938 288.682 67.4167 288.682 66.6875C288.682 65.9583 288.786 65.3333 288.994 64.8125C289.099 63.4583 288.942 62.2604 288.526 61.2188C288.109 60.0729 287.64 59.0833 287.119 58.25C286.911 57.3125 286.911 56.4792 287.119 55.75C287.432 55.0208 287.64 54.2396 287.744 53.4062C287.536 52.5729 287.536 51.8438 287.744 51.2188C288.057 50.4896 288.109 49.7083 287.901 48.875C287.484 47.5208 287.328 46.7396 287.432 46.5312C287.64 46.2188 287.744 45.8021 287.744 45.2812C287.432 44.4479 287.328 43.7188 287.432 43.0938C287.64 42.4688 287.953 41.8438 288.369 41.2188C288.161 40.4896 288.057 39.8125 288.057 39.1875C288.161 38.4583 288.265 37.7812 288.369 37.1562C288.161 36.7396 287.901 36.4792 287.588 36.375C287.38 36.1667 287.171 35.9062 286.963 35.5938C286.755 34.9688 286.807 34.3438 287.119 33.7188C287.432 33.0938 287.744 32.5208 288.057 32C287.849 31.4792 287.536 30.8542 287.119 30.125C286.703 29.2917 286.599 28.3542 286.807 27.3125C286.911 26.375 286.859 25.8021 286.651 25.5938C286.546 25.3854 286.442 25.125 286.338 24.8125C286.13 24.0833 286.182 23.3021 286.494 22.4688C286.807 21.6354 287.067 20.9583 287.276 20.4375C287.067 19.0833 287.067 18.1979 287.276 17.7812C287.484 17.3646 287.692 16.9479 287.901 16.5312C287.796 15.9062 287.588 15.4375 287.276 15.125C286.963 14.7083 286.859 14.0833 286.963 13.25C286.755 12.8333 286.442 12.5208 286.026 12.3125C285.713 12 285.453 11.6354 285.244 11.2188C285.453 10.4896 285.401 9.96875 285.088 9.65625C284.88 9.34375 284.724 8.92708 284.619 8.40625C283.994 8.51042 283.526 8.35417 283.213 7.9375C283.005 7.41667 283.057 6.89583 283.369 6.375C282.224 6.0625 281.546 6.01042 281.338 6.21875C281.13 6.32292 280.817 6.32292 280.401 6.21875C279.88 6.01042 279.411 5.75 278.994 5.4375C278.682 5.02083 278.369 4.60417 278.057 4.1875C277.015 3.45833 276.807 2.88542 277.432 2.46875C278.161 2.67708 278.838 2.72917 279.463 2.625C280.192 2.52083 280.974 2.52083 281.807 2.625C282.744 3.25 283.474 3.45833 283.994 3.25C284.515 2.9375 285.088 2.88542 285.713 3.09375C286.234 2.88542 286.807 2.57292 287.432 2.15625C288.786 2.26042 289.619 2.36458 289.932 2.46875C290.349 2.57292 290.713 2.57292 291.026 2.46875C291.546 2.26042 292.015 2.05208 292.432 1.84375C292.849 1.53125 293.369 1.42708 293.994 1.53125C294.411 1.32292 294.724 1.11458 294.932 0.90625C295.244 0.697917 295.661 0.59375 296.182 0.59375C296.494 1.42708 296.599 2 296.494 2.3125C296.39 2.52083 296.286 2.78125 296.182 3.09375C296.599 3.30208 296.911 3.25 297.119 2.9375C297.432 2.625 297.744 2.41667 298.057 2.3125C298.682 1.89583 299.411 1.58333 300.244 1.375C301.494 1.6875 302.276 1.73958 302.588 1.53125C302.901 1.21875 303.421 1.11458 304.151 1.21875C305.401 1.94792 306.234 2.41667 306.651 2.625C306.546 3.66667 306.338 4.1875 306.026 4.1875C305.817 4.08333 305.609 4.13542 305.401 4.34375C305.921 5.59375 306.078 6.375 305.869 6.6875C305.661 6.89583 305.453 7.26042 305.244 7.78125C305.453 9.03125 305.869 10.0729 306.494 10.9062C306.286 11.8438 306.234 12.3646 306.338 12.4688C306.546 12.5729 306.703 12.7292 306.807 12.9375C307.015 13.5625 306.963 14.0833 306.651 14.5C306.442 14.8125 306.234 15.125 306.026 15.4375C305.713 16.2708 305.557 17.1562 305.557 18.0938C305.661 18.9271 305.817 19.7604 306.026 20.5938C306.026 20.9062 305.921 21.2188 305.713 21.5312C305.609 21.8438 305.505 22.1042 305.401 22.3125C305.713 22.7292 305.817 23.1979 305.713 23.7188C305.713 24.1354 305.661 24.6042 305.557 25.125C305.661 25.3333 305.817 25.5938 306.026 25.9062C306.234 26.1146 306.338 26.375 306.338 26.6875C306.442 27.4167 306.442 28.0938 306.338 28.7188C306.234 29.2396 306.182 29.7604 306.182 30.2812C306.182 30.9062 306.286 31.5312 306.494 32.1562C306.703 32.6771 306.703 33.3542 306.494 34.1875C306.494 34.5 306.599 34.8125 306.807 35.125C307.015 35.3333 307.119 35.5938 307.119 35.9062C307.224 36.3229 307.171 36.6875 306.963 37C306.859 37.3125 306.755 37.625 306.651 37.9375C306.859 38.3542 306.911 38.875 306.807 39.5C306.807 40.0208 306.859 40.5417 306.963 41.0625C307.796 42.2083 308.161 42.9375 308.057 43.25C308.057 43.5625 308.057 43.9271 308.057 44.3438C307.328 45.3854 306.911 46.2188 306.807 46.8438C306.703 47.4688 306.546 47.9896 306.338 48.4062C306.338 49.3438 306.39 50.2292 306.494 51.0625C306.703 51.8958 306.703 52.7292 306.494 53.5625C306.494 53.9792 306.546 54.2917 306.651 54.5C306.755 54.7083 306.859 55.0208 306.963 55.4375C306.859 56.2708 306.546 57.0521 306.026 57.7812C305.609 58.4062 305.713 59.0833 306.338 59.8125C307.171 60.5417 307.432 61.2708 307.119 62C306.911 62.625 306.703 63.3021 306.494 64.0312C306.807 66.1146 306.703 68.1979 306.182 70.2812C306.39 71.2188 306.338 71.7396 306.026 71.8438C305.817 71.9479 305.713 72.1562 305.713 72.4688C306.651 74.0312 306.963 76.2708 306.651 79.1875L306.807 79.5ZM305.088 98.7188C305.192 99.0312 305.192 99.4479 305.088 99.9688C305.088 100.385 305.088 100.802 305.088 101.219C306.026 102.365 306.703 103.875 307.119 105.75C307.64 107.521 307.64 109.344 307.119 111.219C305.869 112.573 304.984 113.51 304.463 114.031C303.942 114.448 303.421 114.865 302.901 115.281C302.588 115.802 302.224 116.323 301.807 116.844C301.39 117.365 300.869 117.781 300.244 118.094C299.203 118.094 298.265 117.885 297.432 117.469C296.599 117.156 295.765 117.208 294.932 117.625C293.161 117 291.338 116.531 289.463 116.219C289.151 115.906 288.838 115.594 288.526 115.281C288.213 114.865 287.849 114.552 287.432 114.344C286.807 113.51 286.338 112.677 286.026 111.844C286.026 111.115 285.921 110.698 285.713 110.594C285.505 110.49 285.349 110.333 285.244 110.125C285.453 109.812 285.661 109.552 285.869 109.344C286.182 109.031 286.442 108.719 286.651 108.406C286.651 107.365 286.755 106.479 286.963 105.75C287.276 105.021 287.484 104.188 287.588 103.25C287.796 102.938 288.005 102.677 288.213 102.469C288.421 102.156 288.578 101.74 288.682 101.219C289.932 100.385 290.869 99.8646 291.494 99.6562C292.119 99.3438 292.692 98.9271 293.213 98.4062C294.359 98.4062 295.088 98.3542 295.401 98.25C295.817 98.0417 296.286 97.8854 296.807 97.7812C298.161 97.8854 298.994 97.9896 299.307 98.0938C299.724 98.1979 300.088 98.3021 300.401 98.4062C301.026 98.5104 301.546 98.5104 301.963 98.4062C302.484 98.3021 303.005 98.1979 303.526 98.0938L305.088 98.7188Z" fill="white"/>
</svg>
