<svg width="272" height="73" viewBox="0 0 272 73" fill="none" xmlns="http://www.w3.org/2000/svg">
<path d="M57.4154 33.3185V40.0385H59.1846L60.5025 38.3613V33.0651L57.4154 33.3185Z" fill="white"/>
<path d="M98.9341 35.0953C98.9327 35.0562 98.932 35.0168 98.932 34.9769V29.9107L95.845 30.1641V34.9769C95.845 35.7893 95.993 36.5198 96.2653 37.1628L98.9341 35.0953Z" fill="white"/>
<path d="M105.535 25.9738V29.3687L106.42 29.2961L108.622 27.59V25.9738H105.535Z" fill="white"/>
<path d="M115.852 28.5218C115.701 28.9567 115.617 29.4481 115.617 30.0015C115.617 33.5769 119.219 33.9215 122.285 34.1154C123.347 34.2025 124.24 34.3227 124.863 34.5958L125.199 31.6414C124.224 31.4241 123.205 31.3517 122.349 31.2938C120.527 31.1431 118.683 31.0569 118.683 29.8077C118.683 28.8041 119.544 28.2776 120.636 28.1292L115.852 28.5218Z" fill="white"/>
<path d="M81.6753 31.3272V40.0385H84.7409V33.876L82.9105 31.2258L81.6753 31.3272Z" fill="white"/>
<path d="M34.778 32.9738C34.778 33.7324 34.8924 34.4626 35.1064 35.1497L38.37 34.8818C38.1272 34.2944 37.9937 33.6488 37.9937 32.9738C37.9937 31.8268 38.3923 30.7674 39.0635 29.9407L37.9421 27.0114C36.0092 28.3679 34.778 30.5373 34.778 32.9738Z" fill="white"/>
<path d="M43.0905 40.4601C47.0187 40.2814 50.1751 37.4969 50.6288 33.8755L47.3284 34.1465C46.8159 36.2412 44.9602 37.82 42.6885 37.82C42.4763 37.82 42.2678 37.8058 42.0638 37.7782L43.0905 40.4601Z" fill="white"/>
<path d="M19.5542 36.4263V34.8692H22.1811L21.6099 32.2631H19.5542V28.58H20.8026L20.2314 25.9738H16.4886V33.1607L17.7469 36.5746L19.5542 36.4263Z" fill="white"/>
<path d="M16.4886 40.0385H19.0236L17.7469 36.5746L16.4886 36.6779V40.0385Z" fill="white"/>
<path d="M67.2125 25.9738V29.8221L70.2363 25.9738H67.2125Z" fill="white"/>
<path d="M162.152 35.0659V28.6446H167.211V25.9738H163.131L159.303 35.3248L162.152 35.0659Z" fill="white"/>
<path d="M182.769 28.3955L181.651 25.9738H179.014L175.369 33.865L177.95 33.6304L178.971 32.522L180.193 29.6569H180.321L180.729 30.612L182.769 28.3955Z" fill="white"/>
<path d="M199.593 40.0385V33.7923H206.195V40.0385H209.282V32.8124L208.56 30.8492L206.195 31.0641V31.1862H204.852L196.506 31.9445V40.0385H199.593Z" fill="white"/>
<path d="M223.814 20.1389L227.348 17.5598L220.738 18.1732L224.029 20.8031L223.814 20.1389Z" fill="white"/>
<path d="M222.654 33.0249V29.5686L219.589 29.8471V31.9001L222.654 33.0249Z" fill="white"/>
<path fill-rule="evenodd" clip-rule="evenodd" d="M236.024 37.9306V34.8692H240.183L241.257 36.8311L245.625 28.5044C245.448 28.1557 245.223 27.8328 244.957 27.5422L232.958 28.6324V36.8057L236.024 37.9306ZM242.498 29.1831C242.005 28.6446 241.383 28.58 240.826 28.58H236.024V32.2631H241.04C242.112 32.2631 242.991 31.4877 242.991 30.4108C242.991 29.9369 242.819 29.5062 242.498 29.1831Z" fill="white"/>
<path d="M1 37.9492L16.4886 36.6779M163.761 24.5893L120.636 28.1292M108.061 39.9807L159.303 35.3248M270.375 25.2326L244.957 27.5422M144.683 25.2327L220.738 18.1732M270.374 13.566L227.348 17.5598M32.6225 13.1154L37.9421 27.0114M149.828 58.4695L121.946 60.2308L124.863 34.5958M149.828 58.4695L155.411 58.1168M149.828 58.4695L145.617 68.7564L155.411 58.1168M149.828 58.4695L159.303 35.3248M155.411 58.1168L217.156 54.2164M155.411 58.1168L177.95 33.6304M217.156 54.2164L232.649 53.2378M217.156 54.2164L223.329 71L232.649 53.2378M217.156 54.2164L209.282 32.8124M232.649 53.2378L271.118 50.8077L239.928 39.3632M232.649 53.2378L239.928 39.3632M239.928 39.3632L241.257 36.8311M239.928 39.3632L236.024 37.9306M207.286 27.3859L189.654 20.916M207.286 27.3859L201.165 10.7455M207.286 27.3859L208.56 30.8492M207.286 27.3859L219.589 31.9001M189.654 20.916L168.395 13.1154L163.131 25.9738M189.654 20.916L199.114 10.6383M189.654 20.916L182.769 28.3955M199.114 10.6383L200.552 9.07692L201.165 10.7455M199.114 10.6383L201.165 10.7455M199.114 10.6383L14.7577 1L20.2314 25.9738M201.165 10.7455L212.164 11.3205L220.738 18.1732M7.61174 9.07692L16.4886 33.1607M57.4154 33.3185V40.0385H59.1846M57.4154 33.3185L60.5025 33.0651M57.4154 33.3185V25.9738H60.0523L67.1911 34.6969H67.2125V29.8221M57.4154 33.3185L50.6288 33.8755M59.1846 40.0385L60.5025 38.3613M59.1846 40.0385L48.2542 53.9487L43.0905 40.4601M59.1846 40.0385H60.5025V38.3613M60.5025 38.3613V33.0651M60.5025 38.3613L67.2125 29.8221M60.5025 33.0651V31.3369H60.5239L67.6412 40.0385H70.2995V25.9738H70.2363M60.5025 33.0651L81.6753 31.3272M98.9341 35.0953C98.9327 35.0562 98.932 35.0168 98.932 34.9769V29.9107M98.9341 35.0953L96.2653 37.1628M98.9341 35.0953C98.9958 36.8714 100.45 37.82 102.212 37.82C104.12 37.82 105.535 36.8292 105.535 34.9769V29.3687M98.9341 35.0953L106.42 29.2961M98.932 29.9107L95.845 30.1641M98.932 29.9107V25.9738H95.845V30.1641M98.932 29.9107L105.535 29.3687M95.845 30.1641V34.9769C95.845 35.7893 95.993 36.5198 96.2653 37.1628M95.845 30.1641L82.9105 31.2258M96.2653 37.1628C97.1696 39.2986 99.4438 40.4692 102.212 40.4692C105.921 40.4692 108.622 38.4877 108.622 34.9769V27.59M96.2653 37.1628L90.2365 41.8333L84.7409 33.876M105.535 29.3687V25.9738H108.622V27.59M105.535 29.3687L106.42 29.2961M106.42 29.2961L108.622 27.59M106.42 29.2961L115.852 28.5218M108.622 27.59L127.306 13.1154L125.199 31.6414M115.852 28.5218C115.701 28.9567 115.617 29.4481 115.617 30.0015C115.617 33.5769 119.219 33.9215 122.285 34.1154C123.347 34.2025 124.24 34.3227 124.863 34.5958M115.852 28.5218L120.636 28.1292M115.852 28.5218C116.629 26.2831 119.198 25.5431 121.406 25.5431C124.321 25.5431 126.787 26.62 127.987 27.4385L126.229 29.5923C125.393 28.9677 123.635 28.0846 121.32 28.0846C121.086 28.0846 120.856 28.0992 120.636 28.1292M124.863 34.5958L125.199 31.6414M124.863 34.5958C125.471 34.8627 125.822 35.2755 125.822 35.9462C125.822 37.26 124.407 37.9492 122.628 37.9492C119.798 37.9492 117.804 36.5277 116.625 35.58L114.889 37.6908C116.518 39.0262 118.962 40.4692 122.585 40.4692C126.015 40.4692 128.887 39.1123 128.887 35.6446C128.887 33.0692 127.128 32.0715 125.199 31.6414M125.199 31.6414C124.224 31.4241 123.205 31.3517 122.349 31.2938C120.527 31.1431 118.683 31.0569 118.683 29.8077C118.683 28.8041 119.544 28.2776 120.636 28.1292M81.6753 31.3272V40.0385H84.7409V33.876M81.6753 31.3272L82.9105 31.2258M81.6753 31.3272V28.6446H76.5945V25.9738H89.8002V28.6446H84.7409V33.876M84.7409 33.876L82.9105 31.2258M82.9105 31.2258L75.0514 19.8462L70.2363 25.9738M35.1064 35.1497C34.8924 34.4626 34.778 33.7324 34.778 32.9738C34.778 30.5373 36.0092 28.3679 37.9421 27.0114M35.1064 35.1497L38.37 34.8818M35.1064 35.1497C36.0707 38.2473 39.0565 40.4692 42.6885 40.4692C42.8234 40.4692 42.9574 40.4662 43.0905 40.4601M35.1064 35.1497L19.5542 36.4263M38.37 34.8818C38.1272 34.2944 37.9937 33.6488 37.9937 32.9738C37.9937 31.8268 38.3923 30.7674 39.0635 29.9407M38.37 34.8818C39.0032 36.4143 40.3793 37.5506 42.0638 37.7782M38.37 34.8818L47.3284 34.1465M39.0635 29.9407L37.9421 27.0114M39.0635 29.9407C39.9173 28.889 41.2122 28.2138 42.6885 28.2138C45.3682 28.2138 47.4691 30.3677 47.4691 32.9738C47.4691 33.3773 47.4204 33.7702 47.3284 34.1465M39.0635 29.9407L42.0638 37.7782M37.9421 27.0114C39.2556 26.0896 40.8931 25.5431 42.6885 25.5431C47.1261 25.5431 50.6848 28.8815 50.6848 32.9738C50.6848 33.2793 50.6658 33.5802 50.6288 33.8755M43.0905 40.4601C47.0187 40.2814 50.1751 37.4969 50.6288 33.8755M43.0905 40.4601L42.0638 37.7782M50.6288 33.8755L47.3284 34.1465M47.3284 34.1465C46.8159 36.2412 44.9602 37.82 42.6885 37.82C42.4763 37.82 42.2678 37.8058 42.0638 37.7782M19.5542 36.4263V34.8692H22.1811M19.5542 36.4263L17.7469 36.5746M19.5542 36.4263V40.0385H19.0236M22.1811 34.8692L21.6099 32.2631M22.1811 34.8692L29.6085 68.7564L19.0236 40.0385M22.1811 34.8692H24.249C26.157 34.8692 27.4004 34.3523 28.2793 33.5123C29.094 32.7154 29.6085 31.6385 29.6085 30.4108C29.6085 29.3338 29.2012 28.3431 28.4723 27.5246C27.5504 26.5338 26.2213 25.9738 24.249 25.9738H20.2314M21.6099 32.2631H19.5542V28.58H20.8026M21.6099 32.2631H24.3562C24.8922 32.2631 25.4924 32.1769 25.9641 31.7246C26.3071 31.38 26.5214 30.9062 26.5214 30.4323C26.5214 29.9369 26.3285 29.5062 26.0069 29.1615C25.5353 28.6662 24.9136 28.58 24.3562 28.58H20.8026M21.6099 32.2631L20.8026 28.58M20.8026 28.58L20.2314 25.9738M20.2314 25.9738H16.4886V33.1607M16.4886 33.1607L17.7469 36.5746M16.4886 33.1607V36.6779M17.7469 36.5746L19.0236 40.0385M17.7469 36.5746L16.4886 36.6779M19.0236 40.0385H16.4886V36.6779M67.2125 29.8221V25.9738H70.2363M67.2125 29.8221L70.2363 25.9738M162.152 35.0659V28.6446H167.211V25.9738H163.131M162.152 35.0659L159.303 35.3248M162.152 35.0659V40.0385H159.087V28.6446H154.006V25.9738H163.131M162.152 35.0659L175.369 33.865M163.131 25.9738L159.303 35.3248M182.769 28.3955L181.651 25.9738H179.014L175.369 33.865M182.769 28.3955L180.729 30.612M182.769 28.3955L188.146 40.0385H184.781L183.494 37.0662H177.02L175.755 40.0385H172.518L175.369 33.865M175.369 33.865L177.95 33.6304M177.95 33.6304L178.971 32.522M177.95 33.6304L196.506 31.9445M178.971 32.522L180.193 29.6569H180.321L180.729 30.612M178.971 32.522L178.071 34.6323H182.444L180.729 30.612M178.971 32.522L180.729 30.612M209.282 32.8124V40.0385H206.195V33.7923H199.593V40.0385H196.506V31.9445M209.282 32.8124L208.56 30.8492M209.282 32.8124V25.9738H206.195V31.0641M208.56 30.8492L206.195 31.0641M208.56 30.8492L219.589 29.8471M206.195 31.0641V31.1862H204.852M206.195 31.0641L204.852 31.1862M204.852 31.1862L196.506 31.9445M204.852 31.1862H199.593V25.9738H196.506V31.9445M227.348 17.5598L223.814 20.1389L224.029 20.8031M227.348 17.5598L220.738 18.1732M227.348 17.5598L227.489 17.4562H222.947L221.543 13.1154L220.139 17.4562H215.596L219.271 20.1389L217.868 24.4797L221.543 21.797L225.218 24.4797L224.029 20.8031M220.738 18.1732L224.029 20.8031M224.029 20.8031L231.815 27.0256L253.699 13.1154L245.625 28.5044M222.654 33.0249V29.5686M222.654 33.0249L219.589 31.9001M222.654 33.0249V40.0385H219.589V31.9001M222.654 33.0249L232.958 36.8057M222.654 29.5686L219.589 29.8471M222.654 29.5686V25.9738H219.589V29.8471M222.654 29.5686L232.958 28.6324M219.589 29.8471V31.9001M236.024 37.9306V34.8692H240.183L241.257 36.8311M236.024 37.9306L232.958 36.8057M236.024 37.9306V40.0385H232.958V36.8057M241.257 36.8311L245.625 28.5044M241.257 36.8311L243.012 40.0385H246.528L243.248 34.3738C244.963 33.62 246.078 32.22 246.078 30.4108C246.078 29.725 245.917 29.0797 245.625 28.5044M245.625 28.5044C245.448 28.1557 245.223 27.8328 244.957 27.5422M244.957 27.5422L232.958 28.6324M244.957 27.5422C244.945 27.5291 244.933 27.516 244.92 27.5031C244.02 26.5554 242.712 25.9738 240.719 25.9738H232.958V28.6324M232.958 28.6324V36.8057M240.826 28.58C241.383 28.58 242.005 28.6446 242.498 29.1831C242.819 29.5062 242.991 29.9369 242.991 30.4108C242.991 31.4877 242.112 32.2631 241.04 32.2631H236.024V28.58H240.826Z" stroke="white"/>
</svg>
